<?xml version="1.0" encoding="UTF-8"?><svg id="a" xmlns="http://www.w3.org/2000/svg" viewBox="0 0 250 250"><defs><style>.b{fill:#fff;}.c{fill:#83bbfb;}</style></defs><rect class="c" y="0" width="250" height="250"/><g><g><path class="b" d="M192.82,155.48H108.67v14h9.72l-19.93,19.93h.01c-1.23,1.28-1.99,3-1.99,4.9,0,3.87,3.13,7,7,7,2.05,0,3.89-.89,5.17-2.29l22.47-22.47,22.76,22.76,.04-.04c1.27,1.26,3.01,2.04,4.94,2.04,3.87,0,7-3.13,7-7,0-2.23-1.05-4.21-2.67-5.5l-19.33-19.33h48.97c3.87,0,7-3.13,7-7s-3.13-7-7-7Z"/><path class="b" d="M174.84,99.81h-47.12v14h39.82v35.9h14.31v-42.9c0-3.87-3.13-7-7-7Z"/><path class="b" d="M120.2,113.81v-14h-45.77v-8.15c.1-4.23-3.46-7.6-7.42-7.38-3.73,.22-6.8,3.59-6.58,7.57v7.96h-16.15s-.04,0-.06,0c-3.87,0-7,3.13-7,7s3.13,7,7,7c.02,0,.04,0,.06,0h16.15v48.73c0,3.87,3.13,7,7,7h33.52v-14h-26.52v-41.73h45.77Z"/><path class="b" d="M205.77,124.55h-3.95v-10.35c0-.06,0-.11,0-.17,0-3.87-3.13-7-7-7s-6.99,3.13-7,6.99h0v35.7h14v-11.17h3.95c3.87,0,7-3.13,7-7s-3.13-7-7-7Z"/></g><line class="b" x1="60.44" y1="96.2" x2="74.44" y2="96"/><path class="b" d="M67.44,48.7c-12.43,0-22.5,10.07-22.5,22.5s10.07,22.5,22.5,22.5,22.5-10.07,22.5-22.5-10.07-22.5-22.5-22.5Zm0,32.4c-5.47,0-9.9-4.43-9.9-9.9s4.43-9.9,9.9-9.9,9.9,4.43,9.9,9.9-4.43,9.9-9.9,9.9Z"/></g></svg>